name rise38.3101peak57.3503fall81.6963.mot
datacolumns 19
datarows 29
range 19.00326200000000 19.04993400000000
endheader
time	ground_force1_vx	ground_force1_vy	ground_force1_vz	ground_force1_px	ground_force1_py	ground_force1_pz	ground_force2_vx	ground_force2_vy	ground_force2_vz	ground_force2_px	ground_force2_py	ground_force2_pz	ground_torque1_x	ground_torque1_y	ground_torque1_z	ground_torque2_x	ground_torque2_y	ground_torque2_z	
19.00326200000000	-15.74167200000000	46.14010300000000	-17.23816400000000	0.32528300000000	0.00000000000000	0.05618100000000	-57.83474300000000	795.65672700000005	-47.79453800000000	0.11340800000000	0.00000000000000	-0.11495400000000	0.00000000000000	-11.88778700000000	0.00000000000000	0.00000000000000	-22.38524000000000	0.00000000000000	
19.00493600000000	-17.03809700000000	52.47088100000000	-19.11850600000000	0.32848500000000	0.00000000000000	0.05698200000000	-58.57737200000000	793.18973800000003	-47.29457100000000	0.11271400000000	0.00000000000000	-0.11483900000000	0.00000000000000	-13.26129600000000	0.00000000000000	0.00000000000000	-22.41488800000000	0.00000000000000	
19.00660000000000	-18.07481700000000	58.67192700000000	-20.82232200000000	0.33157600000000	0.00000000000000	0.05773400000000	-59.34467500000000	790.65068499999995	-46.78094700000000	0.11202300000000	0.00000000000000	-0.11471900000000	0.00000000000000	-14.52853400000000	0.00000000000000	0.00000000000000	-22.45025900000000	0.00000000000000	
19.00826600000000	-18.83082100000000	64.67910300000000	-22.32331200000000	0.33456800000000	0.00000000000000	0.05844300000000	-60.13633100000000	788.03720299999998	-46.25362300000000	0.11133500000000	0.00000000000000	-0.11459400000000	0.00000000000000	-15.66999000000000	0.00000000000000	0.00000000000000	-22.49126000000000	0.00000000000000	
19.00993100000000	-19.29975900000000	70.45538100000000	-23.60814800000000	0.33747300000000	0.00000000000000	0.05911400000000	-60.95190700000000	785.34675800000002	-45.71255800000000	0.11065100000000	0.00000000000000	-0.11446400000000	0.00000000000000	-16.67484300000000	0.00000000000000	0.00000000000000	-22.53776300000000	0.00000000000000	
19.01159900000000	-19.48859100000000	75.98991500000000	-24.67564100000000	0.34029900000000	0.00000000000000	0.05975100000000	-61.79085300000000	782.57664599999998	-45.15770700000000	0.10997100000000	0.00000000000000	-0.11432800000000	0.00000000000000	-17.54054300000000	0.00000000000000	0.00000000000000	-22.58961200000000	0.00000000000000	
19.01326500000000	-19.41535800000000	81.29512099999999	-25.53505900000000	0.34305300000000	0.00000000000000	0.06035700000000	-62.65250000000000	779.72400500000003	-44.58903100000000	0.10929600000000	0.00000000000000	-0.11418700000000	0.00000000000000	-18.27179100000000	0.00000000000000	0.00000000000000	-22.64662300000000	0.00000000000000	
19.01494500000000	-19.10643300000000	86.40233800000000	-26.20387000000000	0.34574300000000	0.00000000000000	0.06093600000000	-63.53605900000000	776.78582100000006	-44.00649100000000	0.10862600000000	0.00000000000000	-0.11404100000000	0.00000000000000	-18.87908900000000	0.00000000000000	0.00000000000000	-22.70857500000000	0.00000000000000	
19.01660200000000	-18.59354700000000	91.35668600000000	-26.70520500000000	0.34837100000000	0.00000000000000	0.06148900000000	-64.44062099999999	773.75893699999995	-43.41005600000000	0.10796100000000	0.00000000000000	-0.11388900000000	0.00000000000000	-19.37706600000000	0.00000000000000	0.00000000000000	-22.77522300000000	0.00000000000000	
19.01826600000000	-17.91088400000000	96.21167199999999	-27.06530300000000	0.35094300000000	0.00000000000000	0.06202000000000	-65.36514900000000	770.64006600000005	-42.79970300000000	0.10730200000000	0.00000000000000	-0.11373200000000	0.00000000000000	-19.78274700000000	0.00000000000000	0.00000000000000	-22.84628500000000	0.00000000000000	
19.01993000000000	-17.09247100000000	101.02404700000000	-27.31114000000000	0.35346100000000	0.00000000000000	0.06253000000000	-66.30848600000000	767.42579699999999	-42.17542000000000	0.10664900000000	0.00000000000000	-0.11357000000000	0.00000000000000	-20.11392300000000	0.00000000000000	0.00000000000000	-22.92145500000000	0.00000000000000	
19.02160300000000	-16.17001100000000	105.84926200000000	-27.46840200000000	0.35592700000000	0.00000000000000	0.06302100000000	-67.26934799999999	764.11260900000002	-41.53720900000000	0.10600200000000	0.00000000000000	-0.11340200000000	0.00000000000000	-20.38773200000000	0.00000000000000	0.00000000000000	-23.00039100000000	0.00000000000000	
19.02326900000000	-15.17126500000000	110.73778100000000	-27.55990400000000	0.35834400000000	0.00000000000000	0.06349500000000	-68.24632600000000	760.69688399999995	-40.88508500000000	0.10536200000000	0.00000000000000	-0.11322900000000	0.00000000000000	-20.61952400000000	0.00000000000000	0.00000000000000	-23.08272700000000	0.00000000000000	
19.02492900000000	-14.11899700000000	115.73239500000000	-27.60450700000000	0.36071200000000	0.00000000000000	0.06395300000000	-69.23788800000000	757.17491800000005	-40.21908400000000	0.10472900000000	0.00000000000000	-0.11305100000000	0.00000000000000	-20.82205300000000	0.00000000000000	0.00000000000000	-23.16806200000000	0.00000000000000	
19.02659500000000	-13.03047700000000	120.86655500000001	-27.61650600000000	0.36303200000000	0.00000000000000	0.06439700000000	-70.24237700000000	753.54293600000005	-39.53926100000000	0.10410400000000	0.00000000000000	-0.11286800000000	0.00000000000000	-21.00500700000000	0.00000000000000	0.00000000000000	-23.25597300000000	0.00000000000000	
19.02826600000000	-11.91747500000000	126.16366600000001	-27.60547700000000	0.36530500000000	0.00000000000000	0.06482600000000	-71.25801500000000	749.79710499999999	-38.84569300000000	0.10348500000000	0.00000000000000	-0.11267900000000	0.00000000000000	-21.17483800000000	0.00000000000000	0.00000000000000	-23.34600400000000	0.00000000000000	
19.02993100000000	-10.78664800000000	131.63723700000000	-27.57649700000000	0.36753100000000	0.00000000000000	0.06524300000000	-72.28290300000000	745.93355099999997	-38.13848400000000	0.10287400000000	0.00000000000000	-0.11248500000000	0.00000000000000	-21.33487100000000	0.00000000000000	0.00000000000000	-23.43767600000000	0.00000000000000	
19.03159700000000	-9.64024100000000	137.29169400000001	-27.53065300000000	0.36970900000000	0.00000000000000	0.06564800000000	-73.31502600000000	741.94837299999995	-37.41776500000000	0.10227100000000	0.00000000000000	-0.11228600000000	0.00000000000000	-21.48561800000000	0.00000000000000	0.00000000000000	-23.53048400000000	0.00000000000000	
19.03326500000000	-8.47696800000000	143.12369600000000	-27.46575600000000	0.37183900000000	0.00000000000000	0.06604100000000	-74.35225199999999	737.83766200000002	-36.68369500000000	0.10167600000000	0.00000000000000	-0.11208200000000	0.00000000000000	-21.62524900000000	0.00000000000000	0.00000000000000	-23.62389700000000	0.00000000000000	
19.03492800000000	-7.29299000000000	149.12375100000000	-27.37716200000000	0.37392100000000	0.00000000000000	0.06642400000000	-75.39234100000000	733.59751600000004	-35.93646700000000	0.10108800000000	0.00000000000000	-0.11187300000000	0.00000000000000	-21.75014800000000	0.00000000000000	0.00000000000000	-23.71736400000000	0.00000000000000	
19.03660100000000	-6.08289300000000	155.27795800000001	-27.25862400000000	0.37595300000000	0.00000000000000	0.06679800000000	-76.43294500000000	729.22406000000001	-35.17630400000000	0.10050900000000	0.00000000000000	-0.11166000000000	0.00000000000000	-21.85550600000000	0.00000000000000	0.00000000000000	-23.81031000000000	0.00000000000000	
19.03826800000000	-4.84059200000000	161.56971999999999	-27.10310200000000	0.37793500000000	0.00000000000000	0.06716100000000	-77.47161500000000	724.71346500000004	-34.40346700000000	0.09993700000000	0.00000000000000	-0.11144100000000	0.00000000000000	-21.93589000000000	0.00000000000000	0.00000000000000	-23.90214300000000	0.00000000000000	
19.03993700000000	-3.56011800000000	167.98131799999999	-26.90348600000000	0.37986600000000	0.00000000000000	0.06751600000000	-78.50580600000001	720.06196699999998	-33.61825200000000	0.09937300000000	0.00000000000000	-0.11121700000000	0.00000000000000	-21.98576200000000	0.00000000000000	0.00000000000000	-23.99225200000000	0.00000000000000	
19.04159900000000	-2.23623100000000	174.49524000000000	-26.65318700000000	0.38174400000000	0.00000000000000	0.06786300000000	-79.53288300000000	715.26588900000002	-32.82099300000000	0.09881600000000	0.00000000000000	-0.11098900000000	0.00000000000000	-21.99991000000000	0.00000000000000	0.00000000000000	-24.08001000000000	0.00000000000000	
19.04326600000000	-0.86487400000000	181.09523500000000	-26.34658000000000	0.38356800000000	0.00000000000000	0.06820100000000	-80.55012800000000	710.32166400000006	-32.01206300000000	0.09826700000000	0.00000000000000	-0.11075600000000	0.00000000000000	-21.97378400000000	0.00000000000000	0.00000000000000	-24.16477600000000	0.00000000000000	
19.04492900000000	0.55655300000000	187.76704799999999	-25.97930500000000	0.38533600000000	0.00000000000000	0.06853100000000	-81.55474700000001	705.22585200000003	-31.19187400000000	0.09772500000000	0.00000000000000	-0.11051900000000	0.00000000000000	-21.90372100000000	0.00000000000000	0.00000000000000	-24.24589900000000	0.00000000000000	
19.04660300000000	2.02908700000000	194.49886300000000	-25.54841500000000	0.38704800000000	0.00000000000000	0.06885400000000	-82.54387699999999	699.97516599999994	-30.36087800000000	0.09719000000000	0.00000000000000	-0.11027700000000	0.00000000000000	-21.78707300000000	0.00000000000000	0.00000000000000	-24.32271700000000	0.00000000000000	
19.04827100000000	3.55221900000000	201.28146899999999	-25.05240200000000	0.38870300000000	0.00000000000000	0.06917000000000	-83.51459699999999	694.56649200000004	-29.51956700000000	0.09666200000000	0.00000000000000	-0.11003100000000	0.00000000000000	-21.62224000000000	0.00000000000000	0.00000000000000	-24.39456200000000	0.00000000000000	
19.04993400000000	5.12403200000000	208.10819300000000	-24.49112000000000	0.39029700000000	0.00000000000000	0.06947900000000	-84.46393100000000	688.99691399999995	-28.66847400000000	0.09613900000000	0.00000000000000	-0.10978100000000	0.00000000000000	-21.40863000000000	0.00000000000000	0.00000000000000	-24.46076000000000	0.00000000000000	
